# xmcd
#
# Track frame offsets:
# 150
# 15494
# 24540
# 40740
# 52578
# 61324
# 68295
# 75032
# 81834
# 88337
# 93005
# 97322
# 107078
# 123392
# 134501
# 148915
# 157760
# 163404
# 172874
# 179169
# 195714
# 205507
# 217077
# 226635
# 237134
# 246745
# 259230
# 279435
# 289185
# 306701
#
# Disc length: 4396 seconds
#
# Revision: 0
# Processed by: cddbd v1.5PL3 Copyright (c) Steve Scherf et al.
# Submitted via: Axialis_AX_CDPlayer 2.6
#
DISCID=a3112a1e
DTITLE=Various Artist - Tapes 060
DYEAR=1900
DGENRE=
TTITLE0=Great judgement morning
TTITLE1=Roll, Jordan, roll
TTITLE2=Let me walk close to thee
TTITLE3=In a beautiful heaven
TTITLE4=In the name of love
TTITLE5=Lucky girl and lonely guy
TTITLE6=Gone with the wine
TTITLE7=Old love never dies
TTITLE8=From heart to heart
TTITLE9=Stand up
TTITLE10=Last night
TTITLE11=Pray every day
TTITLE12=Golden bells for you and me
TTITLE13=Live your religion every day
TTITLE14=Ho9w beautiful heaven must be
TTITLE15=My baby's gone
TTITLE16=Pretty world today
TTITLE17=Turn out like I am
TTITLE18=Girls drink and have fun
TTITLE19=Sweet Rosie Jones
TTITLE20=Fool like me
TTITLE21=Queen of my little world
TTITLE22=Keep me broken hearted
TTITLE23=Famous last words
TTITLE24=This gtime is the next time
TTITLE25=26
TTITLE26=27
TTITLE27=28
TTITLE28=Let it be - Beatles
TTITLE29=Silent night
EXTD=
EXTT0=
EXTT1=
EXTT2=
EXTT3=
EXTT4=
EXTT5=
EXTT6=
EXTT7=
EXTT8=
EXTT9=
EXTT10=
EXTT11=
EXTT12=
EXTT13=
EXTT14=
EXTT15=
EXTT16=
EXTT17=
EXTT18=
EXTT19=
EXTT20=
EXTT21=
EXTT22=
EXTT23=
EXTT24=
EXTT25=
EXTT26=
EXTT27=
EXTT28=
EXTT29=
PLAYORDER=
